<?xml version="1.0" encoding="utf-8"?>
<!-- Generator: Adobe Illustrator 26.0.2, SVG Export Plug-In . SVG Version: 6.00 Build 0)  -->
<svg version="1.1" id="Layer_1" xmlns="http://www.w3.org/2000/svg" xmlns:xlink="http://www.w3.org/1999/xlink" x="0px" y="0px"
	 viewBox="0 0 500 500" style="enable-background:new 0 0 500 500;" xml:space="preserve">
<g>
	<g>
		<g>
			<g>
				<path d="M181.4,231.8h18.1c-1.1,0-2.2-0.5-2.8-1.4c-0.7-0.9-0.9-2-0.7-3.1l2.2-9c1.2-4.9,5.5-8.3,10.5-8.3h23.3
					c6,0,10.8,4.9,10.8,10.9v7.3c0,2-1.6,3.6-3.6,3.6h21.7c-2,0-3.6-1.6-3.6-3.6v-7.3c0-6,4.9-10.9,10.8-10.9h23.3
					c5,0,9.3,3.4,10.5,8.3l2.2,9c0.3,1.1,0,2.2-0.7,3.1c-0.7,0.9-1.7,1.4-2.8,1.4h18.1c2,0,3.6-1.6,3.6-3.6v-21.8
					c0-10-8.1-18.2-18.1-18.2H195.8c-10,0-18.1,8.2-18.1,18.2v21.8C177.8,230.2,179.4,231.8,181.4,231.8z"/>
				<path d="M318.6,239.1H181.4c-10,0-18.1,8.2-18.1,18.2v50.9c0,2,1.6,3.6,3.6,3.6s3.6-1.6,3.6-3.6v-10.9h158.9v10.9
					c0,2,1.6,3.6,3.6,3.6c2,0,3.6-1.6,3.6-3.6v-50.9C336.7,247.2,328.6,239.1,318.6,239.1z M329.5,290H170.5v-7.3h158.9L329.5,290
					L329.5,290z"/>
			</g>
		</g>
	</g>
</g>
</svg>
