<?xml version="1.0" encoding="utf-8"?>
<!-- Generator: Adobe Illustrator 26.0.2, SVG Export Plug-In . SVG Version: 6.00 Build 0)  -->
<svg version="1.1" id="Layer_1" xmlns="http://www.w3.org/2000/svg" xmlns:xlink="http://www.w3.org/1999/xlink" x="0px" y="0px"
	 viewBox="0 0 500 500" style="enable-background:new 0 0 500 500;" xml:space="preserve">
<g>
	<g id="_x31_5_00000069376859686178317060000007292754060526541474_">
		<g>
			<path d="M199.1,197.8h2.8c4.3,0,7.8-3.5,7.8-7.8v-21.6v-8.1c0-4.3-3.5-7.8-7.8-7.8h-2.8c-4.3,0-7.8,3.5-7.8,7.8v8.1V190
				C191.3,194.3,194.8,197.8,199.1,197.8z"/>
			<path d="M299.6,197.6h2.8c4.3,0,7.8-3.5,7.8-7.8v-23.5v-6.2c0-4.3-3.5-7.8-7.8-7.8h-2.8c-4.3,0-7.8,3.5-7.8,7.8v6.2v23.5
				C291.8,194.1,295.3,197.6,299.6,197.6z"/>
			<path d="M336.8,168.4h-20.1v23.5c0,7.8-6.4,12.2-14.2,12.2h-2.8c-7.8,0-14.2-6.4-14.2-14.2v-21.4h-69.2V190
				c0,7.8-6.4,14.2-14.2,14.2h-2.8c-7.8,0-14.2-6.4-14.2-14.2v-21.6h-21.7c-7,0-12.7,5.7-12.7,12.7V335c0,7,5.7,12.7,12.7,12.7
				h173.5c7,0,12.7-5.7,12.7-12.7V181.1C349.5,174.1,343.8,168.4,336.8,168.4z M336.8,335H163.2l0-116.2h173.5L336.8,335
				C336.8,335,336.8,335,336.8,335z"/>
			<path d="M256.6,257.8h22.9c0.9,0,1.6-0.7,1.6-1.6v-19.8c0-0.9-0.7-1.6-1.6-1.6h-22.9c-0.9,0-1.6,0.7-1.6,1.6v19.8
				C254.9,257,255.7,257.8,256.6,257.8z"/>
			<path d="M293.9,257.8h22.9c0.9,0,1.6-0.7,1.6-1.6v-19.8c0-0.9-0.7-1.6-1.6-1.6h-22.9c-0.9,0-1.6,0.7-1.6,1.6v19.8
				C292.3,257,293,257.8,293.9,257.8z"/>
			<path d="M181.9,290.2h22.9c0.9,0,1.6-0.7,1.6-1.6v-19.8c0-0.9-0.7-1.6-1.6-1.6h-22.9c-0.9,0-1.6,0.7-1.6,1.6v19.8
				C180.3,289.5,181,290.2,181.9,290.2z"/>
			<path d="M219.3,290.2h22.9c0.9,0,1.6-0.7,1.6-1.6v-19.8c0-0.9-0.7-1.6-1.6-1.6h-22.9c-0.9,0-1.6,0.7-1.6,1.6v19.8
				C217.6,289.5,218.3,290.2,219.3,290.2z"/>
			<path d="M256.6,290.2h22.9c0.9,0,1.6-0.7,1.6-1.6v-19.8c0-0.9-0.7-1.6-1.6-1.6h-22.9c-0.9,0-1.6,0.7-1.6,1.6v19.8
				C254.9,289.5,255.7,290.2,256.6,290.2z"/>
			<path d="M293.9,290.2h22.9c0.9,0,1.6-0.7,1.6-1.6v-19.8c0-0.9-0.7-1.6-1.6-1.6h-22.9c-0.9,0-1.6,0.7-1.6,1.6v19.8
				C292.3,289.5,293,290.2,293.9,290.2z"/>
			<path d="M204.8,299.5h-22.9c-0.9,0-1.6,0.7-1.6,1.6V321c0,0.9,0.7,1.6,1.6,1.6h22.9c0.9,0,1.6-0.7,1.6-1.6v-19.8
				C206.4,300.3,205.7,299.5,204.8,299.5z"/>
			<path d="M242.1,299.5h-22.9c-0.9,0-1.6,0.7-1.6,1.6V321c0,0.9,0.7,1.6,1.6,1.6h22.9c0.9,0,1.6-0.7,1.6-1.6v-19.8
				C243.8,300.3,243,299.5,242.1,299.5z"/>
			<path d="M279.4,299.5h-22.9c-0.9,0-1.6,0.7-1.6,1.6V321c0,0.9,0.7,1.6,1.6,1.6h22.9c0.9,0,1.6-0.7,1.6-1.6v-19.8
				C281.1,300.3,280.4,299.5,279.4,299.5z"/>
			<path d="M316.8,299.5h-22.9c-0.9,0-1.6,0.7-1.6,1.6V321c0,0.9,0.7,1.6,1.6,1.6h22.9c0.9,0,1.6-0.7,1.6-1.6v-19.8
				C318.4,300.3,317.7,299.5,316.8,299.5z"/>
		</g>
	</g>
</g>
</svg>
