<?xml version="1.0" encoding="utf-8"?>
<!-- Generator: Adobe Illustrator 26.0.2, SVG Export Plug-In . SVG Version: 6.00 Build 0)  -->
<svg version="1.1" id="Layer_1" xmlns="http://www.w3.org/2000/svg" xmlns:xlink="http://www.w3.org/1999/xlink" x="0px" y="0px"
	 viewBox="0 0 500 500" style="enable-background:new 0 0 500 500;" xml:space="preserve">
<g>
	<path d="M291.1,268.6l-16.4-8.2h-7v3.4c0,1.1-0.5,2.2-1.3,2.9l-4.4,3.8l3.8,55.3l25.4-12.1V268.6z M260.1,258.4l-4.1-3.5H244
		l-4.1,3.5v3.7l4.5,3.9c0,0,0,0,0,0l1.4,1.2h8.3l5.9-5.1L260.1,258.4L260.1,258.4z M258.7,335.1l-0.2-2.9c0,0,0-0.1,0-0.1l-3.9-57.2
		h-9.1l-3.9,57.1c0,0.1,0,0.1,0,0.2l-0.2,2.9l8.7,7L258.7,335.1z M238,270.6l-4.4-3.8c-0.9-0.7-1.3-1.8-1.3-2.9v-3.4h-7l-16.4,8.2
		v45.1l25.4,12.1L238,270.6z M298.8,266.3v49.9c0,1.5-0.9,2.8-2.2,3.5l-30.3,14.5l0.2,2.4c0.1,1.3-0.4,2.5-1.4,3.3l-12.3,9.9
		c-0.7,0.6-1.6,0.9-2.4,0.9c-0.1,0-0.2,0-0.3,0c-1,0.1-1.9-0.2-2.7-0.8l-12.3-9.9c-1-0.8-1.5-2-1.4-3.3l0.2-2.4l-30.3-14.5
		c-1.3-0.6-2.2-2-2.2-3.5v-49.9c0-1.5,0.8-2.8,2.1-3.4l19.3-9.6c0.5-0.3,1.1-0.4,1.7-0.4h10.3l5.4-4.6c0.7-0.6,1.6-0.9,2.5-0.9h14.7
		c0.9,0,1.8,0.3,2.5,0.9l5.5,4.6l10.3,0c0.6,0,1.2,0.1,1.7,0.4l19.3,9.6C298,263.5,298.8,264.8,298.8,266.3z M218.8,186.9
		c15.7,9.5,38,4.8,51.4-6.3h-47.7C221.1,182.6,219.8,184.7,218.8,186.9z M224.5,172.9h51v-15.9h-51V172.9z M207.9,201.4
		c0-4.8,0.8-9.6,2.4-14.1c0.1-0.2,0.1-0.4,0.2-0.6c1.5-4,3.6-7.8,6.3-11.3v-22.2c0-2.1,1.7-3.8,3.8-3.8h58.7c2.1,0,3.8,1.7,3.8,3.8
		v22.3c5.8,7.4,8.9,16.5,8.9,25.9c0,15.4-8.4,29.3-21.3,36.6l-1.3,6.8c-0.4,1.8-2,3.1-3.8,3.1c-0.2,0-0.5,0-0.7-0.1
		c-2.1-0.4-3.4-2.4-3-4.5l0.3-1.6c-1.3,0.4-2.7,0.7-4.1,1c-2.1,0.4-4.1-0.9-4.5-3c-0.4-2.1,0.9-4.1,3-4.5
		c16.1-3.2,27.7-17.4,27.7-33.8c0-6.6-1.9-13-5.4-18.5c-7.4,7.6-18,13.3-29.5,15.5c-12.1,2.4-23.9,0.9-33.2-4.2
		c-0.5,2.3-0.7,4.7-0.7,7.1c0,16.4,11.7,30.6,27.7,33.8c2.1,0.4,3.4,2.4,3,4.5c-0.4,2.1-2.4,3.4-4.5,3c-1.4-0.3-2.7-0.6-4.1-1
		l0.3,1.6c0.4,2.1-1,4.1-3,4.5c-2.1,0.4-4.1-1-4.5-3l-1.3-6.8C216.3,230.7,207.9,216.9,207.9,201.4z M275.8,278.4h4.6
		c2.1,0,3.8,1.7,3.8,3.8c0,2.1-1.7,3.8-3.8,3.8h-4.6c-2.1,0-3.8-1.7-3.8-3.8C271.9,280.1,273.6,278.4,275.8,278.4z"/>
</g>
</svg>
