<?xml version="1.0" encoding="utf-8"?>
<!-- Generator: Adobe Illustrator 26.0.2, SVG Export Plug-In . SVG Version: 6.00 Build 0)  -->
<svg version="1.1" id="Layer_1" xmlns="http://www.w3.org/2000/svg" xmlns:xlink="http://www.w3.org/1999/xlink" x="0px" y="0px"
	 viewBox="0 0 500 500" style="enable-background:new 0 0 500 500;" xml:space="preserve">
<path d="M286.7,217c0.2-3.9,0.4-8,0.6-12.2l0.2-3.8c0.1-1.6-0.5-3.1-1.9-4.5c-6.2-6.6-28-11.2-53-11.2c-25.4,0-47.3,4.6-53.2,11.3
	c-1.2,1.4-1.8,2.9-1.6,4.3c0,0,0,0,0,0c0,0,0,0,0,0c0,0,0,0,0,0l0.4,5.7c6.7,93.7,7.8,108.1,54.5,108.1c25.5,0,37.9-4,44.7-20.9
	c1.2,0.2,2.3,0.4,3.5,0.4c0.9,0.1,1.8,0.1,2.7,0.1c20.2,0,37.3-15.7,38.7-36.1C323.6,237.1,307.8,218.7,286.7,217z M282,277.8
	c-0.1,0-0.2,0-0.4,0c2-11.2,3.1-25.7,4.2-44.3c5.6,0.6,10.8,3.2,14.5,7.5c3.9,4.5,5.8,10.2,5.4,16.2c-0.4,5.9-3.1,11.4-7.6,15.3
	C293.6,276.3,287.9,278.2,282,277.8z M277.9,200.9c0,3.5-17.2,8.4-45.3,8.4c-28.1,0-45.3-4.9-45.3-8.4c0-3.5,17.2-8.4,45.3-8.4
	C260.7,192.4,277.9,197.3,277.9,200.9z"/>
</svg>
