<?xml version="1.0" encoding="utf-8"?>
<!-- Generator: Adobe Illustrator 26.0.2, SVG Export Plug-In . SVG Version: 6.00 Build 0)  -->
<svg version="1.1" id="Layer_1" xmlns="http://www.w3.org/2000/svg" xmlns:xlink="http://www.w3.org/1999/xlink" x="0px" y="0px"
	 viewBox="0 0 500 500" style="enable-background:new 0 0 500 500;" xml:space="preserve">
<g>
	<path d="M344.1,334.4H155.9v-9.7h188.2V334.4z M168.9,307.9l46.4-8c5.4,5.4,12.7,8.5,20.4,8.5c3.5,0,6.9-0.6,10.1-1.8l4.5-1.7
		l1.4,3.5H250v6.5h13v-6.5h-4.3l-2.3-5.8l1.1-0.4l79.9,15.4c0,0.2,0,0.4,0,0.6H165.8C166.2,314.5,167.3,311.1,168.9,307.9z
		 M180.9,295.1l20.1-11.4l9.2,10.5l-36,6.2C176.1,298.4,178.4,296.6,180.9,295.1z M188,278l107.4-70.7l5.6,12.1l-121.1,68.8
		C181.4,284.1,184.2,280.5,188,278z M305.3,258.7l-47.2-7.4l31.8-18.1L305.3,258.7z M242.6,285.6c-3.1-0.5-5.6-3.1-5.6-6.4
		c0-3.6,2.9-6.5,6.5-6.5c3.6,0,6.5,2.9,6.5,6.5c0,1.5-0.5,2.9-1.4,4l-2.1-5.2l-6,2.4L242.6,285.6z M314.4,273.9l-60.5,22.7l-2.8-6.9
		c3.2-2.4,5.3-6.1,5.3-10.4c0-7.2-5.8-13-13-13c-7.2,0-13,5.8-13,13s5.8,13,13,13c0.6,0,1.1-0.1,1.6-0.2l2.7,6.8l-4.4,1.7
		c-2.5,0.9-5.1,1.4-7.8,1.4c-6.4,0-12.5-2.8-16.8-7.6l-12.1-13.8l42.8-24.3l-0.1,0.3l60.2,9.5L314.4,273.9z M333.1,305
		c1.1,1.8,1.9,3.7,2.6,5.6l-66.5-12.8l48.7-18.3L333.1,305z M171,181.9c-1.2,0-2.1-0.9-2.1-2.1v-5.5c0-1.2,0.9-2.1,2.1-2.1h3.9
		c0.1,0,0.3,0,0.4,0l27.6,5.5c1,0.2,1.7,1.1,1.7,2.1c0,1.2-0.9,2.1-2.1,2.1H171z M338.6,301.6l-43-71.7l13.7-7.8l-19.3-41.8
		l29.8-12.4c3.6-1.5,7.4-2.2,11.2-2.2c7.2,0,13,5.8,13,13c0,7.2-5.8,13-13,13h-13v6.5h13c10.7,0,19.5-8.7,19.5-19.5
		c0-10.7-8.7-19.5-19.5-19.5c-4.7,0-9.4,0.9-13.7,2.7l-36.1,15l11.3,24.5l-39.3,25.8l-60.3-12.7l-7-26.2h16.4c4.7,0,8.6-3.9,8.6-8.6
		c0-4.1-2.9-7.6-6.9-8.4l-27.6-5.5c-0.6-0.1-1.1-0.2-1.7-0.2H171c-4.7,0-8.6,3.9-8.6,8.6v5.5c0,4.7,3.9,8.6,8.6,8.6h8.4l12.3,46.3
		l6.3-1.7l-3-11.4l50.8,10.7l-61.3,40.3c-7.1,4.7-11.5,12.4-12.2,20.8c-7.4,6.2-12,15.1-12.9,24.8h-10v22.7h201.2v-22.7h-6.7
		C343.4,312.3,341.7,306.7,338.6,301.6z"/>
</g>
</svg>
