<?xml version="1.0" encoding="utf-8"?>
<!-- Generator: Adobe Illustrator 26.0.2, SVG Export Plug-In . SVG Version: 6.00 Build 0)  -->
<svg version="1.1" id="Layer_1" xmlns="http://www.w3.org/2000/svg" xmlns:xlink="http://www.w3.org/1999/xlink" x="0px" y="0px"
	 viewBox="0 0 500 500" style="enable-background:new 0 0 500 500;" xml:space="preserve">
<g>
	<g>
		<path d="M250.1,347.1c-2.5,0-4.7-1-6.5-2.7L159.8,261c-2.1-1.7-4.4-4-6.5-6.5c-5-5.8-8.9-12.5-11.4-19.7
			c-2.3-6.6-3.5-13.4-3.5-20.4c0-33.9,27.6-61.5,61.5-61.5c20.1,0,38.7,9.9,50.1,25.9c11.4-16,30.1-25.9,50.1-25.9
			c33.9,0,61.5,27.6,61.5,61.5c0,7.2-1.2,14.2-3.6,20.9c-3,8.4-8,16.2-14.3,22.6l-87.1,86.5C254.9,346.1,252.6,347.1,250.1,347.1z
			 M247.5,335.2C247.4,335.2,247.4,335.2,247.5,335.2L247.5,335.2z M252.8,335.2L252.8,335.2C252.8,335.2,252.8,335.2,252.8,335.2z
			 M199.9,165.9c-26.8,0-48.6,21.8-48.6,48.6c0,5.5,0.9,10.9,2.8,16.1c2,5.7,5,10.9,9,15.5c1.7,1.9,3.5,3.8,5.4,5.4l81.6,81.1
			l84.4-83.8c5-5,8.9-11.2,11.3-17.8c1.9-5.3,2.9-10.8,2.9-16.5c0-26.8-21.8-48.6-48.6-48.6c-19,0-36.4,11.2-44.2,28.6l-5.9,13
			l-5.9-13C236.2,177.1,218.9,165.9,199.9,165.9z"/>
	</g>
</g>
</svg>
