<?xml version="1.0" encoding="utf-8"?>
<!-- Generator: Adobe Illustrator 26.0.2, SVG Export Plug-In . SVG Version: 6.00 Build 0)  -->
<svg version="1.1" id="Layer_1" xmlns="http://www.w3.org/2000/svg" xmlns:xlink="http://www.w3.org/1999/xlink" x="0px" y="0px"
	 viewBox="0 0 500 500" style="enable-background:new 0 0 500 500;" xml:space="preserve">
<style type="text/css">
	.st0{fill-rule:evenodd;clip-rule:evenodd;}
</style>
<g>
	<g>
		<path class="st0" d="M250,214.6c-19.5,0-35.4,15.8-35.4,35.4c0,19.5,15.8,35.4,35.4,35.4c19.5,0,35.4-15.8,35.4-35.4
			C285.4,230.5,269.5,214.6,250,214.6z"/>
	</g>
	<g>
		<path class="st0" d="M300.6,165.8H199.4c-18.6,0-33.6,15-33.6,33.6v101.1c0,18.6,15,33.6,33.6,33.6h101.1
			c18.6,0,33.6-15,33.6-33.6V199.4C334.2,180.9,319.1,165.8,300.6,165.8z M250,302c-28.7,0-52-23.3-52-52c0-28.7,23.3-52,52-52
			c28.7,0,52,23.3,52,52C302,278.7,278.7,302,250,302z M307.2,198c-4.4,0-7.9-3.6-7.9-7.9c0-4.4,3.6-7.9,7.9-7.9
			c4.4,0,7.9,3.6,7.9,7.9C315.2,194.4,311.6,198,307.2,198z"/>
	</g>
</g>
</svg>
