<?xml version="1.0" encoding="utf-8"?>
<!-- Generator: Adobe Illustrator 26.0.2, SVG Export Plug-In . SVG Version: 6.00 Build 0)  -->
<svg version="1.1" id="Layer_1" xmlns="http://www.w3.org/2000/svg" xmlns:xlink="http://www.w3.org/1999/xlink" x="0px" y="0px"
	 viewBox="0 0 500 500" style="enable-background:new 0 0 500 500;" xml:space="preserve">
<g>
	<path d="M269.1,211.6h8.6v-7.8h-8.6V211.6z M282.4,211.6h8.6v-7.8h-8.6V211.6z M269.1,224.1h8.6v-7.8h-8.6V224.1z M282.4,224.1h8.6
		v-7.8h-8.6V224.1z M293.3,228.8h-26.4c-1.3,0-2.3-1-2.3-2.3v-25c0-1.3,1-2.3,2.3-2.3h26.4c1.3,0,2.3,1,2.3,2.3v25
		C295.6,227.7,294.5,228.8,293.3,228.8z M255.4,185.6h49.3L280,166.8L255.4,185.6z M257.2,241h45.6v-50.8h-45.6V241z M328.1,333.5
		h9.7l-35.1-87.9h-45.6v5.5c0,0,0,0,0,0.1v82.3h3.6v-64.6c0-11,9-20,20-20c8.2,0,15.6,5,18.6,12.6L328.1,333.5z M154.5,333.7
		c6.8,0.3,25.6,0.3,37.5-8.2c14.2-10.1,22.1-26.4,29-40.8c4.4-9.2,8.6-17.8,13.9-23.6c7.4-8,14.2-10.8,17.5-11.8v-3.4
		c-3.4,0.7-10.4,3.3-19.5,12.4c-5.2,5.2-9.3,13.8-13.6,22.9c-6.8,14.3-14.4,30.5-29.2,41.1c-10.1,7.2-22.5,8.6-31.1,8.5
		c-1.3,0-2.6,0.5-3.6,1.4C155.1,332.7,154.8,333.2,154.5,333.7z M158.8,338.5c-4.2,0-7-0.3-7.3-0.3c-1.2-0.1-2.1-1.1-2.1-2.3
		c0-2.6,1-5,2.9-6.8c1.9-1.8,4.3-2.8,6.9-2.8c7.9,0.1,19.3-1.2,28.4-7.7c13.8-9.9,21.2-25.5,27.7-39.3c4.5-9.5,8.7-18.4,14.5-24.2
		c10.6-10.6,18.9-13.2,22.8-13.8v-51h-4.1c-1,0-1.9-0.6-2.2-1.6c-0.3-0.9,0-2,0.8-2.6l31.5-24c0.8-0.6,2-0.6,2.8,0l31.5,24
		c0.8,0.6,1.1,1.6,0.8,2.6c-0.3,0.9-1.2,1.6-2.2,1.6h-4.1V241h12.8c1.3,0,2.3,1,2.3,2.3s-1,2.3-2.3,2.3h-12.5l5.9,14.7
		c0.2-0.1,0.4-0.1,0.6-0.1h12.3c1.3,0,2.3,1,2.3,2.3c0,1.3-1,2.3-2.3,2.3h-11.1l5.7,14.3h11.7c1.3,0,2.3,1,2.3,2.3
		c0,1.3-1,2.3-2.3,2.3H323l5.7,14.3h11.4c1.3,0,2.3,1,2.3,2.3c0,1.3-1,2.3-2.3,2.3h-9.5l5.7,14.3h12c1.3,0,2.3,1,2.3,2.3
		c0,1.3-1,2.3-2.3,2.3h-10.1l5.2,13.1c0.3,0.7,0.2,1.5-0.2,2.2c-0.4,0.6-1.2,1-1.9,1h-14.7c-0.9,0-1.8-0.6-2.2-1.5l-29.3-73.5
		c-2.3-5.9-8-9.7-14.3-9.7c-8.5,0-15.4,6.9-15.4,15.4v66.9c0,1.3-1,2.3-2.3,2.3h-8.2c-1.3,0-2.3-1-2.3-2.3v-81.6
		c-3,1.1-8.4,3.8-14.1,10.1c-3.9,4.3-7.4,10.6-10.8,17.7c0.1,0.2,0.1,0.4,0.1,0.6v53.5c0,1.3-1,2.3-2.3,2.3c-1.3,0-2.3-1-2.3-2.3
		v-44.8c-5.7,11.6-12.3,23.9-22.6,33.3v11.5c0,1.3-1,2.3-2.3,2.3c-1.3,0-2.3-1-2.3-2.3v-7.6c-0.4,0.3-0.7,0.5-1.1,0.8
		C183.7,337.2,168,338.5,158.8,338.5z"/>
</g>
</svg>
