<?xml version="1.0" encoding="utf-8"?>
<!-- Generator: Adobe Illustrator 26.0.2, SVG Export Plug-In . SVG Version: 6.00 Build 0)  -->
<svg version="1.1" id="Layer_1" xmlns="http://www.w3.org/2000/svg" xmlns:xlink="http://www.w3.org/1999/xlink" x="0px" y="0px"
	 viewBox="0 0 500 500" style="enable-background:new 0 0 500 500;" xml:space="preserve">
<g>
	<path d="M156.9,168.2l76,86.2c4.3,4.9,10.5,7.7,17.1,7.7c6.5,0,12.8-2.8,17.1-7.7l74.7-84.7c0.6-0.7,1.3-1.2,2.1-1.7
		c-3.2-1.4-6.7-2.2-10.3-2.2H166.5c-3.5,0-6.9,0.7-9.9,2C156.7,167.9,156.8,168,156.9,168.2z"/>
	<path d="M355.4,177.9c-0.3,0.9-0.8,1.7-1.5,2.5l-74.7,84.7c-7.4,8.4-18.1,13.2-29.2,13.2c-11.2,0-21.8-4.8-29.2-13.2l-76-86.2
		c-0.2-0.2-0.3-0.4-0.4-0.6c-2.3,3.9-3.7,8.4-3.7,13.3v116.7c0,14.3,11.6,25.8,25.8,25.8h167.1c14.3,0,25.8-11.6,25.8-25.8V191.6
		C359.4,186.6,357.9,181.9,355.4,177.9z"/>
</g>
</svg>
