<?xml version="1.0" encoding="utf-8"?>
<!-- Generator: Adobe Illustrator 26.0.2, SVG Export Plug-In . SVG Version: 6.00 Build 0)  -->
<svg version="1.1" id="Layer_1" xmlns="http://www.w3.org/2000/svg" xmlns:xlink="http://www.w3.org/1999/xlink" x="0px" y="0px"
	 viewBox="0 0 500 500" style="enable-background:new 0 0 500 500;" xml:space="preserve">
<g>
	<g>
		<path d="M228.6,268.7V317h-23.5V183.4c5.6,0,11.6-0.1,18.1-0.2c6.6-0.1,13.2-0.2,19.8-0.2c9.4,0,17.6,1.2,24.5,3.5
			c6.9,2.4,12.3,5.6,16.1,9.7c3.8,4.1,6.6,8.7,8.4,13.5c1.8,4.9,2.7,10.3,2.7,16.1c0,12.1-4.3,22.3-13,30.7
			c-8.5,8.4-20.5,12.6-35.9,12.6C238.2,269.3,232.4,269.1,228.6,268.7z M245.4,205l-16.8,0.4v41c6.7,0.6,12.3,1,16.6,1
			c7.5,0,13.5-1.8,18-5.5c4.5-3.7,6.8-9,6.8-16C270,211.9,261.8,205,245.4,205z"/>
	</g>
</g>
</svg>
