<?xml version="1.0" encoding="utf-8"?>
<!-- Generator: Adobe Illustrator 26.0.2, SVG Export Plug-In . SVG Version: 6.00 Build 0)  -->
<svg version="1.1" id="Layer_1" xmlns="http://www.w3.org/2000/svg" xmlns:xlink="http://www.w3.org/1999/xlink" x="0px" y="0px"
	 viewBox="0 0 500 500" style="enable-background:new 0 0 500 500;" xml:space="preserve">
<g>
	<g>
		<g>
			<g>
				<path d="M242.5,243.1h-29.4c-13.2,0-24,10.8-24,24v48.5c0,2.6,2.1,4.8,4.8,4.8h67.7c2.6,0,4.8-2.1,4.8-4.8v-48.5
					C266.5,253.9,255.7,243.1,242.5,243.1z"/>
			</g>
		</g>
		<g>
			<g>
				<g>
					<path d="M286.9,255.6H274c1.3,3.6,2,7.5,2,11.5v48.5c0,1.7-0.3,3.3-0.8,4.8h21.2c7.9,0,14.4-6.5,14.4-14.4v-26.5
						C310.8,266.4,300.1,255.6,286.9,255.6z"/>
				</g>
			</g>
			<g>
				<g>
					<path d="M227.8,179.6c-15.9,0-28.8,12.9-28.8,28.8c0,10.8,6,20.2,14.7,25.1c4.2,2.3,9,3.7,14.1,3.7c5.1,0,9.9-1.3,14.1-3.7
						c8.8-4.9,14.7-14.4,14.7-25.1C256.6,192.5,243.7,179.6,227.8,179.6z"/>
				</g>
			</g>
			<g>
				<g>
					<path d="M278.4,206.4c-11.9,0-21.6,9.7-21.6,21.6c0,3.7,0.9,7.1,2.5,10.1c2.3,4.3,6,7.7,10.5,9.7c2.6,1.1,5.5,1.7,8.5,1.7
						c11.9,0,21.6-9.7,21.6-21.6S290.3,206.4,278.4,206.4z"/>
				</g>
			</g>
		</g>
	</g>
</g>
</svg>
