<?xml version="1.0" encoding="utf-8"?>
<!-- Generator: Adobe Illustrator 26.0.2, SVG Export Plug-In . SVG Version: 6.00 Build 0)  -->
<svg version="1.1" id="Layer_1" xmlns="http://www.w3.org/2000/svg" xmlns:xlink="http://www.w3.org/1999/xlink" x="0px" y="0px"
	 viewBox="0 0 500 500" style="enable-background:new 0 0 500 500;" xml:space="preserve">
<g>
	<g>
		<g>
			<g>
				<path d="M264.7,243.1h-29.4c-13.2,0-24,10.8-24,24v48.5c0,2.6,2.1,4.8,4.8,4.8h67.7c2.6,0,4.8-2.1,4.8-4.8v-48.5
					C288.6,253.9,277.9,243.1,264.7,243.1z"/>
			</g>
		</g>
		<g>
			<g>
				<g>
					<path d="M250,179.6c-15.9,0-28.8,12.9-28.8,28.8c0,10.8,6,20.2,14.7,25.1c4.2,2.3,9,3.7,14.1,3.7c5.1,0,9.9-1.3,14.1-3.7
						c8.8-4.9,14.7-14.4,14.7-25.1C278.8,192.5,265.9,179.6,250,179.6z"/>
				</g>
			</g>
		</g>
	</g>
</g>
</svg>
