<?xml version="1.0" encoding="utf-8"?>
<!-- Generator: Adobe Illustrator 26.0.2, SVG Export Plug-In . SVG Version: 6.00 Build 0)  -->
<svg version="1.1" id="Layer_1" xmlns="http://www.w3.org/2000/svg" xmlns:xlink="http://www.w3.org/1999/xlink" x="0px" y="0px"
	 viewBox="0 0 500 500" style="enable-background:new 0 0 500 500;" xml:space="preserve">
<g>
	<path d="M229.1,220.3v20.9h-31.3v-20.9H229.1z M197.8,269.2v-20.9h31.3v20.9H197.8z M347.1,293.4c-7,0-10.6,2.1-13.9,3.9
		c-2.8,1.6-5.3,3-10.4,3c-5.1,0-7.6-1.4-10.4-3c-3.2-1.8-6.9-3.9-13.9-3.9c-7,0-10.6,2.1-13.9,3.9c-2.8,1.6-5.3,3-10.4,3
		c-5.1,0-7.6-1.4-10.4-3c-3.2-1.8-6.9-3.9-13.9-3.9c-7,0-10.6,2.1-13.9,3.9c-2.8,1.6-5.3,3-10.4,3c-5.1,0-7.6-1.4-10.4-3
		c-3.2-1.8-6.9-3.9-13.9-3.9c-1.3,0-2.5,0.1-3.6,0.2v-17.5h31.3v10.6c0,1.9,1.6,3.5,3.5,3.5s3.5-1.6,3.5-3.5v-80
		c0-12.1,6.2-22.8,15.7-29c9.8,6.5,15.6,17.2,15.6,29c0,1.9,1.6,3.5,3.5,3.5c1.9,0,3.5-1.6,3.5-3.5c0-12.9-5.8-24.7-15.6-32.6
		c3.8-1.4,7.9-2.2,12.2-2.2c19.2,0,34.8,15.6,34.8,34.8c0,1.9,1.6,3.5,3.5,3.5c1.9,0,3.5-1.6,3.5-3.5c0-23-18.7-41.7-41.7-41.7
		s-41.7,18.7-41.7,41.7v6.7h-31.3v-6.7c0-19.2,15.6-34.8,34.8-34.8c0.8,0,1.6,0,2.4,0.1c1.9,0.1,3.6-1.3,3.7-3.2
		c0.1-1.9-1.3-3.6-3.2-3.7c-1-0.1-1.9-0.1-2.9-0.1c-23,0-41.7,18.7-41.7,41.7v88.8c-1.2,0.6-2.3,1.2-3.3,1.8c-2.8,1.6-5.3,3-10.4,3
		c-5.1,0-7.6-1.4-10.4-3c-3.2-1.8-6.9-3.9-13.9-3.9c-1.9,0-3.5,1.6-3.5,3.5s1.6,3.5,3.5,3.5c5.1,0,7.6,1.4,10.4,3
		c3.2,1.8,6.9,3.9,13.9,3.9c7,0,10.6-2.1,13.9-3.9c2.8-1.6,5.3-3,10.4-3c5.1,0,7.6,1.4,10.4,3c3.2,1.8,6.9,3.9,13.9,3.9
		c7,0,10.6-2.1,13.9-3.9c2.8-1.6,5.3-3,10.4-3c5.1,0,7.6,1.4,10.4,3c3.2,1.8,6.9,3.9,13.9,3.9c7,0,10.6-2.1,13.9-3.9
		c2.8-1.6,5.3-3,10.4-3c5.1,0,7.6,1.4,10.4,3c3.2,1.8,6.9,3.9,13.9,3.9c7,0,10.6-2.1,13.9-3.9c2.8-1.6,5.3-3,10.4-3
		c1.9,0,3.5-1.6,3.5-3.5S349,293.4,347.1,293.4z"/>
	<path d="M322.8,314.2c-5.1,0-7.6-1.4-10.4-3c-3.2-1.8-6.9-3.9-13.9-3.9c-7,0-10.6,2.1-13.9,3.9c-2.8,1.6-5.3,3-10.4,3
		c-5.1,0-7.6-1.4-10.4-3c-3.2-1.8-6.9-3.9-13.9-3.9c-7,0-10.6,2.1-13.9,3.9c-2.8,1.6-5.3,3-10.4,3c-5.1,0-7.6-1.4-10.4-3
		c-3.2-1.8-6.9-3.9-13.9-3.9c-7,0-10.6,2.1-13.9,3.9c-2.8,1.6-5.3,3-10.4,3c-1.9,0-3.5,1.6-3.5,3.5s1.6,3.5,3.5,3.5
		c7,0,10.6-2.1,13.9-3.9c2.8-1.6,5.3-3,10.4-3c5.1,0,7.6,1.4,10.4,3c3.2,1.8,6.9,3.9,13.9,3.9c7,0,10.6-2.1,13.9-3.9
		c2.8-1.6,5.3-3,10.4-3c5.1,0,7.6,1.4,10.4,3c3.2,1.8,6.9,3.9,13.9,3.9c7,0,10.6-2.1,13.9-3.9c2.8-1.6,5.3-3,10.4-3
		c5.1,0,7.6,1.4,10.4,3c3.2,1.8,6.9,3.9,13.9,3.9c1.9,0,3.5-1.6,3.5-3.5S324.8,314.2,322.8,314.2z"/>
	<path d="M298.6,321.1c-7,0-10.6,2.1-13.9,3.9c-2.8,1.6-5.3,3-10.4,3c-5.1,0-7.6-1.4-10.4-3c-3.2-1.8-6.9-3.9-13.9-3.9
		c-7,0-10.6,2.1-13.9,3.9c-2.8,1.6-5.3,3-10.4,3c-5.1,0-7.6-1.4-10.4-3c-3.2-1.8-6.9-3.9-13.9-3.9c-1.9,0-3.5,1.6-3.5,3.5
		s1.6,3.5,3.5,3.5c5.1,0,7.6,1.4,10.4,3c3.2,1.8,6.9,3.9,13.9,3.9c7,0,10.6-2.1,13.9-3.9c2.8-1.6,5.3-3,10.4-3c5.1,0,7.6,1.4,10.4,3
		c3.2,1.8,6.9,3.9,13.9,3.9c7,0,10.6-2.1,13.9-3.9c2.8-1.6,5.3-3,10.4-3c1.9,0,3.5-1.6,3.5-3.5S300.5,321.1,298.6,321.1z"/>
</g>
</svg>
