<?xml version="1.0" encoding="utf-8"?>
<!-- Generator: Adobe Illustrator 26.0.2, SVG Export Plug-In . SVG Version: 6.00 Build 0)  -->
<svg version="1.1" id="Layer_1" xmlns="http://www.w3.org/2000/svg" xmlns:xlink="http://www.w3.org/1999/xlink" x="0px" y="0px"
	 viewBox="0 0 500 500" style="enable-background:new 0 0 500 500;" xml:space="preserve">
<g>
	<path d="M277.9,244.7c0-2.1-1.7-3.8-3.8-3.8h-44.7c-2.1,0-3.8,1.7-3.8,3.8c0,2.1,1.7,3.8,3.8,3.8h44.7
		C276.2,248.5,277.9,246.8,277.9,244.7z M264.9,321.1L250,336.1L238.9,325c-1.5-1.5-3.9-1.5-5.4,0c-1.5,1.5-1.5,3.9,0,5.4l13.8,13.8
		c0.7,0.7,1.7,1.1,2.7,1.1c1,0,2-0.4,2.7-1.1l17.6-17.6c1.5-1.5,1.5-3.9,0-5.4C268.8,319.7,266.4,319.7,264.9,321.1z M292.7,269.4
		c0-2.5-2-4.5-4.5-4.5c-2.5,0-4.5,2-4.5,4.5v63.8c0,2.5,2,4.5,4.5,4.5c2.5,0,4.5-2,4.5-4.5V269.4z M300.3,269.4v63.8
		c0,6.7-5.4,12.1-12.1,12.1c-6.7,0-12.1-5.4-12.1-12.1v-63.8c0-5.3,3.5-9.9,8.3-11.5v-31.2c-12.2-1.8-21.5-12.4-21.5-25.1v-43.1
		c0-2.1,1.7-3.8,3.8-3.8c2.1,0,3.8,1.7,3.8,3.8v43.1c0,9.8,7.9,17.7,17.7,17.7c0,0,0.1,0,0.1,0c9.7,0,17.7-8,17.7-17.7v-43.1
		c0-2.1,1.7-3.8,3.8-3.8s3.8,1.7,3.8,3.8v43.1c0,12.7-9.4,23.2-21.5,25.1v31.2C296.9,259.5,300.3,264.1,300.3,269.4z M350.3,243.2
		c-0.6-1.4-2-2.4-3.5-2.4h-46.3c-2.1,0-3.8,1.7-3.8,3.8c0,2.1,1.7,3.8,3.8,3.8h37.1l-30.8,30.8c-1.5,1.5-1.5,3.9,0,5.4
		c0.7,0.7,1.7,1.1,2.7,1.1c1,0,2-0.4,2.7-1.1l37.3-37.3C350.6,246.3,350.9,244.6,350.3,243.2z M219.4,269.4c0-2.5-2-4.5-4.5-4.5
		c-2.5,0-4.5,2-4.5,4.5v63.8c0,2.5,2,4.5,4.5,4.5c2.5,0,4.5-2,4.5-4.5V269.4z M214.9,219.3c12.1,0,21.9-12.8,21.9-28.5
		s-9.8-28.5-21.9-28.5c-12.1,0-21.9,12.8-21.9,28.5S202.9,219.3,214.9,219.3z M227,269.4v63.8c0,6.7-5.4,12.1-12.1,12.1
		c-6.7,0-12.1-5.4-12.1-12.1v-63.8c0-5.3,3.5-9.9,8.3-11.5v-31.3c-14.5-2.3-25.7-17.5-25.7-35.8c0-19.9,13.2-36.1,29.5-36.1
		c16.3,0,29.5,16.2,29.5,36.1c0,18.3-11.2,33.5-25.7,35.8v31.3C223.5,259.5,227,264.1,227,269.4z M204.2,244.7
		c0-2.1-1.7-3.8-3.8-3.8h-47.2c-1.5,0-2.9,0.9-3.5,2.4c-0.6,1.4-0.3,3.1,0.8,4.2l38.9,38.9c0.7,0.7,1.7,1.1,2.7,1.1
		c1,0,2-0.4,2.7-1.1c1.5-1.5,1.5-3.9,0-5.4l-32.4-32.4h38C202.5,248.5,204.2,246.8,204.2,244.7z M281.1,209.1c2.1,0,3.8-1.7,3.8-3.8
		v-46.7c0-2.1-1.7-3.8-3.8-3.8c-2.1,0-3.8,1.7-3.8,3.8v46.7C277.3,207.4,279,209.1,281.1,209.1z M291.6,205.3v-46.7
		c0-2.1,1.7-3.8,3.8-3.8c2.1,0,3.8,1.7,3.8,3.8v46.7c0,2.1-1.7,3.8-3.8,3.8C293.3,209.1,291.6,207.4,291.6,205.3z"/>
</g>
</svg>
