<?xml version="1.0" encoding="utf-8"?>
<!-- Generator: Adobe Illustrator 26.0.2, SVG Export Plug-In . SVG Version: 6.00 Build 0)  -->
<svg version="1.1" id="Layer_1" xmlns="http://www.w3.org/2000/svg" xmlns:xlink="http://www.w3.org/1999/xlink" x="0px" y="0px"
	 viewBox="0 0 500 500" style="enable-background:new 0 0 500 500;" xml:space="preserve">
<g>
	<path d="M208.3,186.2c-0.2,0-0.3,0-0.5,0.1c-13.6,3.7-26.6,5.5-38.6,6.2c-1,0.1-1.7,0.9-1.6,1.8c0,0.1,0,0.1,0,0.2
		c5,30.7,11.6,64.2,23,90.5c0.4,0.9,1.4,1.3,2.3,0.9c0.9-0.4,1.3-1.4,0.9-2.3c0,0,0,0,0-0.1c-11-25.3-17.6-57.7-22.5-87.8
		c11.7-0.8,24.3-2.5,37.4-6.2c0.9-0.2,1.5-1.2,1.2-2.1C209.8,186.7,209.1,186.1,208.3,186.2z M250.2,157.2
		c32.9,19.2,65.6,26.3,92.6,26.9c-5.1,33.7-12,73.1-25.5,104.2c-7,16.1-15.7,29.9-26.7,39.6c-11,9.7-24.1,15.3-40.5,15.3
		c-16.5,0-29.6-5.7-40.5-15.3c-11-9.7-19.7-23.5-26.7-39.6c-13.5-31.1-20.4-70.4-25.5-104.1C184.1,183.9,217.1,179.7,250.2,157.2z
		 M250.1,149.8c-0.8,0-1.5,0.2-2.1,0.6c-33.8,23.7-67.4,27-94.8,27c-1.9,0-3.5,1.5-3.5,3.5c0,0.2,0,0.3,0,0.5
		c5.2,34.6,12.1,76.3,26.6,109.8c7.3,16.7,16.4,31.4,28.5,42c12,10.6,27,17.1,45.1,17.1c18.1,0,33.1-6.4,45.1-17.1
		c12-10.6,21.2-25.3,28.5-42c14.5-33.4,21.4-75.1,26.6-109.8c0.3-1.9-1-3.6-2.9-3.9c-0.2,0-0.3,0-0.5,0c-27.1,0-61-6.8-95-27.2
		C251.3,149.9,250.7,149.8,250.1,149.8z"/>
</g>
</svg>
