<?xml version="1.0" encoding="utf-8"?>
<!-- Generator: Adobe Illustrator 26.0.2, SVG Export Plug-In . SVG Version: 6.00 Build 0)  -->
<svg version="1.1" id="Layer_1" xmlns="http://www.w3.org/2000/svg" xmlns:xlink="http://www.w3.org/1999/xlink" x="0px" y="0px"
	 viewBox="0 0 500 500" style="enable-background:new 0 0 500 500;" xml:space="preserve">
<g>
	<path d="M193.8,271l-9,9l-4.1-6.2l7.9-7.9c1.4-1.4,3.7-1.4,5.1,0c0.7,0.7,1.1,1.6,1.1,2.6C194.8,269.4,194.5,270.3,193.8,271z
		 M176.2,258.8l6-6c1.4-1.4,3.7-1.4,5.1,0c0.7,0.7,1.1,1.6,1.1,2.6c0,1-0.4,1.9-1.1,2.6l-3.2,3.2l-5.4,5.4v-1.5
		C178.6,262.7,177.7,260.5,176.2,258.8z M175.4,249.2l1.2-9.9c1.4-0.7,3.1-0.5,4.2,0.6c0.7,0.7,1.1,1.6,1.1,2.6c0,1-0.4,1.9-1.1,2.6
		l-3.2,3.2l-2.2,2.2V249.2z M194.2,258.8c1.3-3.6,0.5-7.7-2.4-10.5c-1.2-1.2-2.6-2-4.1-2.4c1.3-3.6,0.5-7.7-2.4-10.5
		c-2.2-2.2-5.1-3.1-7.9-2.9l0.2-1.7c0.3-2.8-0.5-5.6-2.4-7.7c-1.8-2.1-4.5-3.3-7.3-3.3c-4.9,0-8.9,3.5-9.7,8.3l-2.6,17l-6.3,32.5
		l-0.1,20.1l3.2,16.5v35.4h6.5v-35.7l-3.2-16.5v-18.8l6.3-32.3l2.6-17.2c0.2-1.6,1.6-2.8,3.2-2.8c1,0,1.8,0.4,2.5,1.1
		c0.6,0.7,0.9,1.6,0.8,2.6l-2.3,18.6l0,6.9c-0.1,0-0.1,0-0.2,0c-5.3,0-9.5,4.3-9.5,9.7v22.7h6.5v-22.7c0-1.8,1.3-3.2,3.1-3.2
		c1.8,0,3.3,1.5,3.3,3.2v7.5l13,19.5v57.4h6.5v-59.4l-3.1-4.7l9.9-9.9c1.9-1.9,3-4.5,3-7.2c0-2.7-1.1-5.3-3-7.2
		C197.2,260.1,195.7,259.3,194.2,258.8z"/>
	<path d="M324.6,250.5l-2.2-2.2l-3.2-3.2c-0.7-0.7-1.1-1.6-1.1-2.6c0-1,0.4-1.9,1.1-2.6c1.1-1.1,2.8-1.3,4.2-0.6l1.2,9.9V250.5z
		 M321.4,265.2v1.5l-5.4-5.4l-3.2-3.2c-0.7-0.7-1.1-1.6-1.1-2.6c0-1,0.4-1.9,1.1-2.6c1.4-1.4,3.7-1.4,5.1,0l6,6
		C322.3,260.5,321.4,262.7,321.4,265.2z M315.2,280l-9-9c-0.7-0.7-1.1-1.6-1.1-2.6c0-1,0.4-1.9,1.1-2.6c1.4-1.4,3.7-1.4,5.1,0
		l7.9,7.9L315.2,280z M344.3,245.2l-2.6-17.2c-0.7-4.8-4.8-8.3-9.7-8.3c-2.8,0-5.5,1.2-7.3,3.3c-1.8,2.1-2.7,4.9-2.4,7.7l0.2,1.7
		c-2.8-0.2-5.8,0.7-7.9,2.9c-2.8,2.8-3.6,7-2.4,10.5c-1.5,0.5-2.9,1.3-4.1,2.4c-2.8,2.8-3.6,7-2.4,10.5c-1.5,0.5-2.9,1.3-4.1,2.5
		c-1.9,1.9-3,4.5-3,7.2c0,2.7,1.1,5.3,3,7.2l9.9,9.9l-3.1,4.7v59.4h6.5v-57.4l13-19.5v-7.5c0-1.8,1.5-3.2,3.4-3.2
		c1.7,0,3.1,1.4,3.1,3.2v22.7h6.5v-22.7c0-5.5-4.2-9.7-9.6-9.7c0,0-0.1,0-0.1,0V249l-2.4-19c-0.1-0.9,0.2-1.8,0.8-2.6
		c0.6-0.7,1.5-1.1,2.5-1.1c1.6,0,3,1.2,3.2,2.8l2.6,17.3l6.2,32.1v18.8l-3.2,15.9l-0.1,36.3h6.5v-35.4l3.2-15.9l0.1-20.1
		L344.3,245.2z"/>
	<path d="M282.5,232.7c-0.8,0-1.6,0-2.3-0.1c-8.5-0.8-15.7-5.5-20-12.9c8.8,1,17.6-1.5,24.5-7.2c0.7-0.6,1.5-1.3,2.1-2
		c0.9-0.9,1.8-1.9,2.6-2.9c9.3,2.3,17.2,8.7,20.9,12.1C305.7,224,294.6,232.7,282.5,232.7z M256.3,204.6c0.2-5.5,2.2-10.8,5.9-15.3
		c0.2-0.3,0.5-0.6,0.7-0.9c0,0.4,0,0.8-0.1,1.1C262.4,195.3,260,200.5,256.3,204.6z M250,202.3c-0.7-6.2-3.1-12.2-7.2-17.1
		c-0.6-0.7-1.3-1.5-2-2.1c-0.9-0.9-1.9-1.8-2.9-2.6c2.3-9.3,8.7-17.2,12.1-20.9c3.4,3.7,9.8,11.6,12.1,20.9c-1,0.8-2,1.7-2.9,2.6
		c-0.7,0.7-1.3,1.4-2,2.1C253.1,190.1,250.7,196,250,202.3z M237.1,189.6c0-0.4-0.1-0.8-0.1-1.1c0.3,0.3,0.5,0.6,0.7,0.9
		c3.7,4.4,5.7,9.7,5.9,15.2C240,200.5,237.6,195.4,237.1,189.6z M219.9,232.6c-0.8,0.1-1.5,0.1-2.3,0.1c-12.1,0-23.2-8.8-27.8-13
		c3.7-3.4,11.6-9.8,20.9-12.1c0.8,1,1.7,2,2.6,2.9c0.7,0.7,1.4,1.3,2.1,2c6.8,5.7,15.7,8.2,24.5,7.2
		C235.6,227.1,228.3,231.9,219.9,232.6z M238.1,213.4c-6.7,0.6-13.3-1.4-18.5-5.9c-0.3-0.2-0.6-0.5-0.9-0.7
		c4.8,0.2,9.9,1.8,15.1,4.6C235.2,212.2,236.7,212.9,238.1,213.4z M230.8,183.4c-0.2,1.3-0.2,2.6-0.2,3.9c0,1,0,1.9,0.1,2.9
		c0.5,5.5,2.4,10.6,5.4,15.1c-6.3-3.3-12.6-5-18.5-5c-1.3,0-2.6,0.1-3.9,0.2c-4.9-8.2-6-18.3-6.3-23.4
		C212.4,177.4,222.5,178.4,230.8,183.4z M281.3,206.8c-0.3,0.3-0.6,0.5-0.9,0.7c-5.3,4.4-11.8,6.4-18.5,5.9c1.5-0.6,2.9-1.2,4.3-2
		C271.4,208.6,276.5,207,281.3,206.8z M269.3,190.2c0.1-1,0.1-1.9,0.1-2.9c0-1.3-0.1-2.6-0.2-3.9c8.2-4.9,18.3-6,23.4-6.3
		c-0.2,5-1.3,15.1-6.3,23.4c-7.1-0.8-14.7,0.7-22.4,4.7C267,200.8,268.9,195.7,269.3,190.2z M317.3,221.9l2-2.2l-2-2.2
		c-0.5-0.6-10.6-11.4-24.3-15.6c6.7-12.7,6.2-27.5,6.1-28.2l-0.1-3l-3-0.1c-0.8,0-15.6-0.6-28.2,6.1c-4.2-13.7-15-23.8-15.6-24.3
		l-2.2-2l-2.2,2c-0.6,0.5-11.4,10.6-15.6,24.3c-12.7-6.7-27.5-6.2-28.2-6.1l-3,0.1l-0.1,3c0,0.8-0.6,15.6,6.1,28.2
		c-13.7,4.2-23.8,15-24.3,15.6l-2,2.2l2,2.2c0.6,0.7,16.1,17.3,34.8,17.3c1,0,1.9,0,2.9-0.1c12-1.1,22.4-8.9,27.1-20.3
		c0.1-0.3,0.3-0.7,0.4-1c0.3-0.1,0.7-0.3,1-0.4c0.3-0.1,0.7-0.3,1-0.4c0.3,0.1,0.7,0.3,1,0.4c0.3,0.1,0.7,0.3,1,0.4
		c0.1,0.3,0.3,0.7,0.4,1c4.8,11.5,15.2,19.3,27.1,20.3c1,0.1,1.9,0.1,2.9,0.1C301.2,239.2,316.6,222.7,317.3,221.9z"/>
</g>
</svg>
