<?xml version="1.0" encoding="utf-8"?>
<!-- Generator: Adobe Illustrator 26.0.2, SVG Export Plug-In . SVG Version: 6.00 Build 0)  -->
<svg version="1.1" id="Layer_1" xmlns="http://www.w3.org/2000/svg" xmlns:xlink="http://www.w3.org/1999/xlink" x="0px" y="0px"
	 viewBox="0 0 500 500" style="enable-background:new 0 0 500 500;" xml:space="preserve">
<style type="text/css">
	.st0{fill-rule:evenodd;clip-rule:evenodd;}
</style>
<g>
	<g>
		<path class="st0" d="M177.2,175.2l-7.9,7.9c-1.4,1.4-3.6,1.4-4.9,0c-1.4-1.4-1.4-3.6,0-4.9l13.9-13.9c1.4-1.4,3.6-1.4,4.9,0
			l13.9,13.9c1.4,1.4,1.4,3.6,0,4.9s-3.6,1.4-4.9,0l-7.9-7.9v140.7h140.7l-7.9-7.9c-1.4-1.4-1.4-3.6,0-4.9c1.4-1.4,3.6-1.4,4.9,0
			l13.9,13.9c1.4,1.4,1.4,3.5,0,4.9l-13.9,13.9c-1.4,1.4-3.6,1.4-4.9,0s-1.4-3.6,0-4.9l7.9-7.9H184.1v10.4c0,1.9-1.6,3.5-3.5,3.5
			c-1.9,0-3.5-1.6-3.5-3.5v-10.4h-10.4c-1.9,0-3.5-1.6-3.5-3.5c0-1.9,1.6-3.5,3.5-3.5h10.4V175.2L177.2,175.2z M305.5,201.4
			c0-3.8-3.1-6.9-6.9-6.9h-97.2c-3.8,0-6.9,3.1-6.9,6.9v97.2c0,3.8,3.1,6.9,6.9,6.9h97.2c3.8,0,6.9-3.1,6.9-6.9V201.4z"/>
	</g>
</g>
</svg>
