<?xml version="1.0" encoding="utf-8"?>
<!-- Generator: Adobe Illustrator 26.0.2, SVG Export Plug-In . SVG Version: 6.00 Build 0)  -->
<svg version="1.1" id="Layer_1" xmlns="http://www.w3.org/2000/svg" xmlns:xlink="http://www.w3.org/1999/xlink" x="0px" y="0px"
	 viewBox="0 0 500 500" style="enable-background:new 0 0 500 500;" xml:space="preserve">
<g>
	<path d="M186.4,299c-2.6,0-4.7-2.1-4.7-4.7c0-2.6,2.1-4.7,4.7-4.7s4.7,2.1,4.7,4.7C191.1,296.9,189,299,186.4,299z M186.4,282.7
		c-6.4,0-11.6,5.2-11.6,11.6c0,6.4,5.2,11.6,11.6,11.6c6.4,0,11.6-5.2,11.6-11.6C198.1,287.9,192.9,282.7,186.4,282.7z"/>
	<path d="M308.1,299c-2.6,0-4.7-2.1-4.7-4.7c0-2.6,2.1-4.7,4.7-4.7c2.6,0,4.7,2.1,4.7,4.7C312.8,296.9,310.7,299,308.1,299z
		 M308.1,282.7c-6.4,0-11.6,5.2-11.6,11.6c0,6.4,5.2,11.6,11.6,11.6s11.6-5.2,11.6-11.6C319.7,287.9,314.5,282.7,308.1,282.7z"/>
	<path d="M343.4,261.5l-3.5,19.4h-12.8c-4.2-6-11.2-10-19.1-10c-7.9,0-14.9,3.9-19.1,10h-62c-1.9,0-3.5,1.6-3.5,3.5
		c0,1.9,1.6,3.5,3.5,3.5h58.7c-0.4,1.4-0.7,2.8-0.8,4.2h-75.2c-1.1-11.9-11.1-21.2-23.3-21.2c-7.9,0-14.9,3.9-19.1,10h-11v-22.8
		c0-4.5,2.7-8.4,6.8-10.1c5.2-2.1,9-6.4,10.4-11.8l2.6-9.3c3.5-12.6,15.1-21.5,28.2-21.5h55.2c14.2,0,26.8,9.1,31.3,22.6l5.1,15.2
		c0.4,1.3,1.6,2.3,3,2.4l34.1,2.5c3.3,0.2,6.2,1.8,8.2,4.4C343.2,255.1,344,258.3,343.4,261.5z M331.4,292.1
		c-0.1-1.5-0.4-2.9-0.8-4.2h8.2l-0.8,4.2H331.4z M308.1,310.7c-9,0-16.4-7.4-16.4-16.4c0-9,7.4-16.4,16.4-16.4
		c9,0,16.4,7.4,16.4,16.4C324.5,303.4,317.1,310.7,308.1,310.7z M186.4,310.7c-9,0-16.4-7.4-16.4-16.4c0-9,7.4-16.4,16.4-16.4
		c9,0,16.4,7.4,16.4,16.4C202.8,303.4,195.5,310.7,186.4,310.7z M156.4,287.9h7.6c-0.4,1.4-0.7,2.8-0.8,4.2h-6.8V287.9z M239.9,194
		l20.4-4v8.5c-0.2,0-0.5,0-0.7,0h-19.6V194z M346.7,248.2c-3.2-4.1-8-6.7-13.1-7.1l-31.8-2.4l-4.3-13c-4.6-13.9-16.3-23.9-30.2-26.6
		v-13.5c0-1-0.5-2-1.3-2.7c-0.8-0.7-1.9-0.9-2.9-0.7l-27.3,5.4c-1.6,0.3-2.8,1.8-2.8,3.4v7.4h-28.6c-16.2,0-30.6,10.9-34.9,26.6
		l-2.6,9.3c-0.9,3.3-3.2,5.9-6.4,7.2c-6.7,2.8-11.1,9.3-11.1,16.6v37.4c0,1.9,1.6,3.5,3.5,3.5h10.7c2.2,10.6,11.6,18.6,22.9,18.6
		s20.7-8,22.9-18.6h75.9c2.2,10.6,11.6,18.6,22.9,18.6c11.2,0,20.7-8,22.9-18.6h9.9c1.7,0,3.1-1.2,3.4-2.9l6-33.5
		C351.2,257.6,349.9,252.3,346.7,248.2z"/>
	<path d="M250.2,238.6v-22.4h9.3c9.6,0,18.1,6.1,21.1,15.2l2.4,7.2H250.2z M186.5,229.8c1.1-4.1,3.6-7.5,6.8-9.9v18.7h-9.2
		L186.5,229.8z M243.3,216.2v22.4h-43v-22c1.3-0.3,2.7-0.5,4.1-0.5H243.3z M287.2,229.2c-4-11.9-15.1-20-27.7-20h-55.2
		c-11.4,0-21.5,7.7-24.5,18.7l-3.7,13.3c-0.3,1-0.1,2.2,0.6,3c0.7,0.9,1.7,1.4,2.8,1.4h108.4c1.1,0,2.2-0.5,2.8-1.4
		c0.7-0.9,0.8-2.1,0.5-3.1L287.2,229.2z"/>
	<path d="M218.5,283.1c-1.2-2.8-5.3-2.8-6.4,0c-0.5,1.3-0.2,2.9,0.9,3.9c1.2,1,2.9,1.2,4.2,0.4C218.5,286.5,219.1,284.7,218.5,283.1
		C218.4,282.9,218.5,283.3,218.5,283.1z"/>
	<rect x="217.1" y="253.2" width="8.5" height="8.5"/>
	<rect x="234" y="253.2" width="8.5" height="8.5"/>
	<rect x="251" y="253.2" width="8.5" height="8.5"/>
	<rect x="225.6" y="261.6" width="8.5" height="8.5"/>
	<rect x="242.5" y="261.6" width="8.5" height="8.5"/>
	<path d="M337.5,256.9c-1.9-0.3-3.7,0.9-4,2.8l-1.8,10.1c-0.3,1.9,0.9,3.7,2.8,4c0.2,0,0.4,0.1,0.6,0.1c1.7,0,3.1-1.2,3.4-2.9
		l1.8-10.1C340.6,259,339.4,257.2,337.5,256.9z"/>
</g>
</svg>
